<svg width="159" height="140" viewBox="0 0 159 140" fill="none" xmlns="http://www.w3.org/2000/svg">
<path fill-rule="evenodd" clip-rule="evenodd" d="M51.5901 0.472069C47.0068 2.21434 39.8539 6.04169 34.6779 9.52096C28.4853 13.6837 19.977 21.6229 15.7398 27.1925C8.12915 37.1961 4.14775 47.3708 1.85996 62.665C0.321327 72.9493 0.211913 75.5604 0.0699521 105.411C-0.0809971 137.158 -0.218618 135.165 2.29699 137.681C4.72427 140.108 3.28824 139.999 32.8538 139.999C61.4093 139.999 60.4096 140.058 62.7687 138.258C63.3713 137.799 64.2407 136.782 64.7013 135.999L65.5382 134.575L65.6222 107.527L65.7065 80.4782L65.0367 78.9213C64.2503 77.0935 62.0921 75.0564 60.462 74.6036C59.7938 74.4182 54.2251 74.2912 46.7083 74.2902L34.0775 74.2884V72.3394C34.0775 67.9017 35.3428 60.3707 36.9267 55.381C39.0322 48.7473 42.2449 43.3987 46.8986 38.7794C50.6953 35.0106 55.0917 32.0176 61.2719 28.9937C65.7911 26.7828 66.469 26.2342 67.7107 23.7821C68.0396 23.1327 68.2587 21.9753 68.2695 20.8313C68.285 19.1752 68.0786 18.5026 66.5521 15.2353C60.7428 2.80264 60.2677 2.0138 57.841 0.775828C56.0616 -0.132037 53.5063 -0.25602 51.5901 0.472069ZM143.248 0.244871C141.53 0.561957 133.453 4.51453 129.079 7.1783C115.81 15.2598 105.452 26.0869 99.3911 38.2115C94.959 47.0772 92.7636 56.0331 91.2175 71.5576C90.8065 75.6832 90.6887 81.8516 90.5778 105.099C90.4243 137.194 90.2855 135.162 92.8045 137.681C95.2318 140.108 93.7976 139.999 123.345 139.999C152.146 139.999 151.136 140.062 153.478 138.131C154.092 137.625 154.956 136.486 155.398 135.599L156.201 133.988L156.194 107.161C156.187 80.8408 156.175 80.3062 155.556 78.9377C154.83 77.3343 153.723 76.0855 152.171 75.119C151.111 74.4588 150.779 74.4396 137.763 74.2884L124.439 74.1334L124.533 71.6537C124.778 65.2491 126.324 57.6269 128.471 52.2423C130.679 46.7059 133.323 42.6675 137.336 38.7037C140.988 35.0965 144.716 32.526 150.569 29.5814C156.18 26.7586 157.748 25.4577 158.383 23.0996C159.134 20.3084 158.739 18.9021 155.039 11.2121C152.975 6.92042 151.143 3.54127 150.436 2.72174C148.641 0.639757 146.013 -0.265629 143.248 0.244871Z" fill="#F0F6E4"/>
</svg>
