<svg width="10" height="12" viewBox="0 0 10 12" fill="none" xmlns="http://www.w3.org/2000/svg">
<path d="M4.90755 0.000732422C3.6577 0.00220691 2.45946 0.499363 1.57568 1.38314C0.691895 2.26692 0.19474 3.46516 0.193265 4.71502C0.191768 5.7364 0.5254 6.73007 1.14298 7.54359C1.14298 7.54359 1.27155 7.71288 1.29255 7.7373L4.90755 12.0007L8.52427 7.73516C8.54312 7.71245 8.67212 7.54359 8.67212 7.54359L8.67255 7.5423C9.28982 6.72914 9.6233 5.73593 9.62184 4.71502C9.62036 3.46516 9.12321 2.26692 8.23943 1.38314C7.35564 0.499363 6.1574 0.00220691 4.90755 0.000732422ZM4.90755 6.4293C4.5685 6.4293 4.23706 6.32876 3.95514 6.14039C3.67323 5.95203 3.45351 5.68429 3.32376 5.37105C3.19401 5.0578 3.16006 4.71312 3.2262 4.38058C3.29235 4.04804 3.45562 3.74258 3.69537 3.50284C3.93511 3.26309 4.24057 3.09982 4.57311 3.03367C4.90565 2.96753 5.25033 3.00147 5.56358 3.13122C5.87682 3.26097 6.14456 3.4807 6.33293 3.76261C6.5213 4.04453 6.62184 4.37596 6.62184 4.71502C6.62127 5.1695 6.44048 5.60521 6.11911 5.92657C5.79774 6.24794 5.36203 6.42874 4.90755 6.4293Z" fill="#3B3B3B"/>
</svg>
