<svg width="230" height="139" viewBox="0 0 230 139" fill="none" xmlns="http://www.w3.org/2000/svg">
<g clip-path="url(#clip0_620_65)">
<path d="M195.187 124.523C200.53 111.381 202.567 97.1282 201.118 83.0154C199.669 68.9027 194.78 55.361 186.878 43.5783C178.976 31.7957 168.304 22.132 155.797 15.4351C143.29 8.73817 129.331 5.21258 115.144 5.16761C100.957 5.12264 86.9761 8.55965 74.4271 15.1772C61.878 21.7947 51.1446 31.3904 43.1683 43.1228C35.192 54.8551 30.2165 68.3655 28.6783 82.4688C27.1401 96.5721 29.0862 110.837 34.3459 124.013L114.869 91.8692L195.187 124.523Z" fill="url(#paint0_linear_620_65)"/>
<mask id="path-2-inside-1_620_65" fill="white">
<path d="M115.013 3.97763C134.391 3.98053 153.226 10.3775 168.597 22.1763L164.309 27.7622C150.167 16.9073 132.839 11.0221 115.012 11.0194L115.013 3.97763Z"/>
</mask>
<path d="M115.013 3.97763C134.391 3.98053 153.226 10.3775 168.597 22.1763L164.309 27.7622C150.167 16.9073 132.839 11.0221 115.012 11.0194L115.013 3.97763Z" fill="#FC930B" stroke="white" stroke-width="1.75507" mask="url(#path-2-inside-1_620_65)"/>
<mask id="path-3-inside-2_620_65" fill="white">
<path d="M33.6731 125.673C28.1356 112.299 25.9818 97.7654 27.4027 83.3601C28.8235 68.9547 33.7751 55.122 41.8188 43.0874C49.8624 31.0527 60.75 21.1875 73.517 14.3656C86.2839 7.54373 100.536 3.97572 115.012 3.97763L115.011 11.0194C101.693 11.0177 88.5812 14.3002 76.8356 20.5764C65.09 26.8525 55.0735 35.9285 47.6733 47.0004C40.2731 58.0723 35.7176 70.7983 34.4104 84.0512C33.1033 97.3042 35.0847 110.675 40.1793 122.979L33.6731 125.673Z"/>
</mask>
<path d="M33.6731 125.673C28.1356 112.299 25.9818 97.7654 27.4027 83.3601C28.8235 68.9547 33.7751 55.122 41.8188 43.0874C49.8624 31.0527 60.75 21.1875 73.517 14.3656C86.2839 7.54373 100.536 3.97572 115.012 3.97763L115.011 11.0194C101.693 11.0177 88.5812 14.3002 76.8356 20.5764C65.09 26.8525 55.0735 35.9285 47.6733 47.0004C40.2731 58.0723 35.7176 70.7983 34.4104 84.0512C33.1033 97.3042 35.0847 110.675 40.1793 122.979L33.6731 125.673Z" fill="#F13D46" stroke="white" stroke-width="1.75507" mask="url(#path-3-inside-2_620_65)"/>
<mask id="path-4-inside-3_620_65" fill="white">
<path d="M168.59 22.1714C177.76 29.209 185.454 37.9838 191.233 47.9949L185.134 51.5153C179.818 42.3051 172.739 34.2323 164.303 27.7577L168.59 22.1714Z"/>
</mask>
<path d="M168.59 22.1714C177.76 29.209 185.454 37.9838 191.233 47.9949L185.134 51.5153C179.818 42.3051 172.739 34.2323 164.303 27.7577L168.59 22.1714Z" fill="#FCC80B" stroke="white" stroke-width="1.75507" mask="url(#path-4-inside-3_620_65)"/>
<mask id="path-5-inside-4_620_65" fill="white">
<path d="M191.244 48.0129C195.091 54.6813 198.046 61.8256 200.035 69.2628L193.232 71.0818C191.403 64.2395 188.683 57.6668 185.144 51.5319L191.244 48.0129Z"/>
</mask>
<path d="M191.244 48.0129C195.091 54.6813 198.046 61.8256 200.035 69.2628L193.232 71.0818C191.403 64.2395 188.683 57.6668 185.144 51.5319L191.244 48.0129Z" fill="#00AF41" stroke="white" stroke-width="1.75507" mask="url(#path-5-inside-4_620_65)"/>
<mask id="path-6-inside-5_620_65" fill="white">
<path d="M200.033 69.2534C205.04 87.9726 203.731 107.821 196.307 125.72L189.803 123.023C196.632 106.555 197.837 88.2948 193.23 71.0731L200.033 69.2534Z"/>
</mask>
<path d="M200.033 69.2534C205.04 87.9726 203.731 107.821 196.307 125.72L189.803 123.023C196.632 106.555 197.837 88.2948 193.23 71.0731L200.033 69.2534Z" fill="#017B30" stroke="white" stroke-width="1.75507" mask="url(#path-6-inside-5_620_65)"/>
<path d="M11.1348 117.35C11.1348 117.744 11.0527 118.086 10.8887 118.375C10.7246 118.664 10.502 118.9 10.2207 119.084C9.94336 119.268 9.63086 119.402 9.2832 119.488V119.523C9.9707 119.609 10.4922 119.82 10.8477 120.156C11.207 120.492 11.3867 120.941 11.3867 121.504C11.3867 122.004 11.2637 122.451 11.0176 122.846C10.7754 123.24 10.4004 123.551 9.89258 123.777C9.38477 124.004 8.73047 124.117 7.92969 124.117C7.45703 124.117 7.01562 124.078 6.60547 124C6.19922 123.926 5.81641 123.811 5.45703 123.654V122.113C5.82422 122.301 6.20898 122.443 6.61133 122.541C7.01367 122.635 7.38867 122.682 7.73633 122.682C8.38477 122.682 8.83789 122.57 9.0957 122.348C9.35742 122.121 9.48828 121.805 9.48828 121.398C9.48828 121.16 9.42773 120.959 9.30664 120.795C9.18555 120.631 8.97461 120.506 8.67383 120.42C8.37695 120.334 7.96094 120.291 7.42578 120.291H6.77539V118.902H7.4375C7.96484 118.902 8.36523 118.854 8.63867 118.756C8.91602 118.654 9.10352 118.518 9.20117 118.346C9.30273 118.17 9.35352 117.971 9.35352 117.748C9.35352 117.443 9.25977 117.205 9.07227 117.033C8.88477 116.861 8.57227 116.775 8.13477 116.775C7.86133 116.775 7.61133 116.811 7.38477 116.881C7.16211 116.947 6.96094 117.029 6.78125 117.127C6.60156 117.221 6.44336 117.312 6.30664 117.402L5.46875 116.154C5.80469 115.912 6.19727 115.711 6.64648 115.551C7.09961 115.391 7.63867 115.311 8.26367 115.311C9.14648 115.311 9.8457 115.488 10.3613 115.844C10.877 116.199 11.1348 116.701 11.1348 117.35ZM18.2891 119.717C18.2891 120.408 18.2344 121.025 18.125 121.568C18.0195 122.111 17.8477 122.572 17.6094 122.951C17.375 123.33 17.0664 123.619 16.6836 123.818C16.3008 124.018 15.8359 124.117 15.2891 124.117C14.6016 124.117 14.0371 123.943 13.5957 123.596C13.1543 123.244 12.8281 122.74 12.6172 122.084C12.4062 121.424 12.3008 120.635 12.3008 119.717C12.3008 118.791 12.3965 118 12.5879 117.344C12.7832 116.684 13.0996 116.178 13.5371 115.826C13.9746 115.475 14.5586 115.299 15.2891 115.299C15.9727 115.299 16.5352 115.475 16.9766 115.826C17.4219 116.174 17.752 116.678 17.9668 117.338C18.1816 117.994 18.2891 118.787 18.2891 119.717ZM14.0996 119.717C14.0996 120.369 14.1348 120.914 14.2051 121.352C14.2793 121.785 14.4023 122.111 14.5742 122.33C14.7461 122.549 14.9844 122.658 15.2891 122.658C15.5898 122.658 15.8262 122.551 15.998 122.336C16.1738 122.117 16.2988 121.791 16.373 121.357C16.4473 120.92 16.4844 120.373 16.4844 119.717C16.4844 119.064 16.4473 118.52 16.373 118.082C16.2988 117.645 16.1738 117.316 15.998 117.098C15.8262 116.875 15.5898 116.764 15.2891 116.764C14.9844 116.764 14.7461 116.875 14.5742 117.098C14.4023 117.316 14.2793 117.645 14.2051 118.082C14.1348 118.52 14.0996 119.064 14.0996 119.717ZM25.1562 119.717C25.1562 120.408 25.1016 121.025 24.9922 121.568C24.8867 122.111 24.7148 122.572 24.4766 122.951C24.2422 123.33 23.9336 123.619 23.5508 123.818C23.168 124.018 22.7031 124.117 22.1562 124.117C21.4688 124.117 20.9043 123.943 20.4629 123.596C20.0215 123.244 19.6953 122.74 19.4844 122.084C19.2734 121.424 19.168 120.635 19.168 119.717C19.168 118.791 19.2637 118 19.4551 117.344C19.6504 116.684 19.9668 116.178 20.4043 115.826C20.8418 115.475 21.4258 115.299 22.1562 115.299C22.8398 115.299 23.4023 115.475 23.8438 115.826C24.2891 116.174 24.6191 116.678 24.834 117.338C25.0488 117.994 25.1562 118.787 25.1562 119.717ZM20.9668 119.717C20.9668 120.369 21.002 120.914 21.0723 121.352C21.1465 121.785 21.2695 122.111 21.4414 122.33C21.6133 122.549 21.8516 122.658 22.1562 122.658C22.457 122.658 22.6934 122.551 22.8652 122.336C23.041 122.117 23.166 121.791 23.2402 121.357C23.3145 120.92 23.3516 120.373 23.3516 119.717C23.3516 119.064 23.3145 118.52 23.2402 118.082C23.166 117.645 23.041 117.316 22.8652 117.098C22.6934 116.875 22.457 116.764 22.1562 116.764C21.8516 116.764 21.6133 116.875 21.4414 117.098C21.2695 117.316 21.1465 117.645 21.0723 118.082C21.002 118.52 20.9668 119.064 20.9668 119.717Z" fill="#F13D46"/>
<path d="M210.434 119.09C210.434 119.582 210.396 120.07 210.322 120.555C210.252 121.039 210.127 121.496 209.947 121.926C209.768 122.352 209.516 122.73 209.191 123.062C208.867 123.391 208.455 123.648 207.955 123.836C207.455 124.023 206.85 124.117 206.139 124.117C205.971 124.117 205.773 124.109 205.547 124.094C205.32 124.082 205.133 124.062 204.984 124.035V122.582C205.141 122.621 205.307 122.652 205.482 122.676C205.658 122.695 205.836 122.705 206.016 122.705C206.73 122.705 207.281 122.592 207.668 122.365C208.059 122.139 208.332 121.824 208.488 121.422C208.648 121.02 208.74 120.555 208.764 120.027H208.693C208.58 120.215 208.445 120.385 208.289 120.537C208.137 120.686 207.941 120.805 207.703 120.895C207.465 120.98 207.162 121.023 206.795 121.023C206.307 121.023 205.881 120.918 205.518 120.707C205.158 120.492 204.879 120.184 204.68 119.781C204.484 119.375 204.387 118.885 204.387 118.311C204.387 117.689 204.504 117.158 204.738 116.717C204.977 116.271 205.314 115.93 205.752 115.691C206.189 115.453 206.705 115.334 207.299 115.334C207.736 115.334 208.145 115.41 208.523 115.562C208.902 115.711 209.234 115.939 209.52 116.248C209.809 116.557 210.033 116.947 210.193 117.42C210.354 117.893 210.434 118.449 210.434 119.09ZM207.334 116.787C206.982 116.787 206.695 116.908 206.473 117.15C206.25 117.393 206.139 117.771 206.139 118.287C206.139 118.701 206.234 119.029 206.426 119.271C206.617 119.514 206.908 119.635 207.299 119.635C207.568 119.635 207.803 119.576 208.002 119.459C208.201 119.338 208.355 119.188 208.465 119.008C208.578 118.824 208.635 118.637 208.635 118.445C208.635 118.246 208.607 118.049 208.553 117.854C208.498 117.658 208.416 117.48 208.307 117.32C208.197 117.16 208.061 117.031 207.896 116.934C207.736 116.836 207.549 116.787 207.334 116.787ZM217.289 119.717C217.289 120.408 217.234 121.025 217.125 121.568C217.02 122.111 216.848 122.572 216.609 122.951C216.375 123.33 216.066 123.619 215.684 123.818C215.301 124.018 214.836 124.117 214.289 124.117C213.602 124.117 213.037 123.943 212.596 123.596C212.154 123.244 211.828 122.74 211.617 122.084C211.406 121.424 211.301 120.635 211.301 119.717C211.301 118.791 211.396 118 211.588 117.344C211.783 116.684 212.1 116.178 212.537 115.826C212.975 115.475 213.559 115.299 214.289 115.299C214.973 115.299 215.535 115.475 215.977 115.826C216.422 116.174 216.752 116.678 216.967 117.338C217.182 117.994 217.289 118.787 217.289 119.717ZM213.1 119.717C213.1 120.369 213.135 120.914 213.205 121.352C213.279 121.785 213.402 122.111 213.574 122.33C213.746 122.549 213.984 122.658 214.289 122.658C214.59 122.658 214.826 122.551 214.998 122.336C215.174 122.117 215.299 121.791 215.373 121.357C215.447 120.92 215.484 120.373 215.484 119.717C215.484 119.064 215.447 118.52 215.373 118.082C215.299 117.645 215.174 117.316 214.998 117.098C214.826 116.875 214.59 116.764 214.289 116.764C213.984 116.764 213.746 116.875 213.574 117.098C213.402 117.316 213.279 117.645 213.205 118.082C213.135 118.52 213.1 119.064 213.1 119.717ZM224.156 119.717C224.156 120.408 224.102 121.025 223.992 121.568C223.887 122.111 223.715 122.572 223.477 122.951C223.242 123.33 222.934 123.619 222.551 123.818C222.168 124.018 221.703 124.117 221.156 124.117C220.469 124.117 219.904 123.943 219.463 123.596C219.021 123.244 218.695 122.74 218.484 122.084C218.273 121.424 218.168 120.635 218.168 119.717C218.168 118.791 218.264 118 218.455 117.344C218.65 116.684 218.967 116.178 219.404 115.826C219.842 115.475 220.426 115.299 221.156 115.299C221.84 115.299 222.402 115.475 222.844 115.826C223.289 116.174 223.619 116.678 223.834 117.338C224.049 117.994 224.156 118.787 224.156 119.717ZM219.967 119.717C219.967 120.369 220.002 120.914 220.072 121.352C220.146 121.785 220.27 122.111 220.441 122.33C220.613 122.549 220.852 122.658 221.156 122.658C221.457 122.658 221.693 122.551 221.865 122.336C222.041 122.117 222.166 121.791 222.24 121.357C222.314 120.92 222.352 120.373 222.352 119.717C222.352 119.064 222.314 118.52 222.24 118.082C222.166 117.645 222.041 117.316 221.865 117.098C221.693 116.875 221.457 116.764 221.156 116.764C220.852 116.764 220.613 116.875 220.441 117.098C220.27 117.316 220.146 117.645 220.072 118.082C220.002 118.52 219.967 119.064 219.967 119.717Z" fill="#017B30"/>
</g>
<defs>
<linearGradient id="paint0_linear_620_65" x1="34.7689" y1="61.0614" x2="191.449" y2="116.075" gradientUnits="userSpaceOnUse">
<stop offset="0.225671" stop-color="#FFD4CC"/>
<stop offset="0.613079" stop-color="#FDE3C1"/>
<stop offset="0.75951" stop-color="#FFF5D0"/>
<stop offset="0.90702" stop-color="#D3F1C9"/>
<stop offset="1" stop-color="#D1F2C8"/>
</linearGradient>
<clipPath id="clip0_620_65">
<rect width="230" height="139" fill="white"/>
</clipPath>
</defs>
</svg>
