<svg width="23" height="22" viewBox="0 0 23 22" fill="none" xmlns="http://www.w3.org/2000/svg">
<path fill-rule="evenodd" clip-rule="evenodd" d="M9.69036 0.862171C9.94416 0.862171 10.1499 1.06789 10.1499 1.32169V10.0525C10.1499 10.3063 9.94416 10.512 9.69036 10.512H0.959518C0.70572 10.512 0.5 10.3063 0.5 10.0525V1.32169C0.5 1.06789 0.70572 0.862171 0.959518 0.862171H9.69036ZM8.19693 2.81512H2.45295V8.5591H8.19693V2.81512ZM22.3654 5.33345C22.5448 5.5129 22.5448 5.80386 22.3654 5.9833L17.1665 11.1822C16.9871 11.3616 16.6961 11.3616 16.5167 11.1822L11.3178 5.9833C11.1384 5.80386 11.1384 5.5129 11.3178 5.33345L16.5167 0.134581C16.6961 -0.0448605 16.9871 -0.0448605 17.1665 0.134581L22.3654 5.33345ZM19.9284 5.65836L16.8416 2.57158L13.7548 5.65839L16.8416 8.7452L19.9284 5.65836ZM9.69036 12.3501C9.94416 12.3501 10.1499 12.5559 10.1499 12.8096V21.5405C10.1499 21.7943 9.94416 22 9.69036 22H0.959518C0.70572 22 0.5 21.7943 0.5 21.5405V12.8096C0.5 12.5559 0.70572 12.3501 0.959518 12.3501H9.69036ZM8.19693 14.3031H2.45295V20.047H8.19693V14.3031ZM21.1783 12.3501C21.4321 12.3501 21.6378 12.5559 21.6378 12.8096V21.5405C21.6378 21.7943 21.4321 22 21.1783 22H12.4475C12.1937 22 11.988 21.7943 11.988 21.5405V12.8096C11.988 12.5559 12.1937 12.3501 12.4475 12.3501H21.1783ZM19.6849 14.3031H13.9409V20.047H19.6849V14.3031Z" fill="#3B3B3B"/>
</svg>
